<svg xmlns="http://www.w3.org/2000/svg" viewBox="0 0 4019.722 4501.019" id="computer">
  <path fill="#282d35" d="M4019.722 1238.833c0-213.657-171.234-383.194-384.892-383.194H2201.471L2434.93 49.073l-580.553 806.566H384.23C170.573 855.639 0 1025.176 0 1238.833v2181.53c0 213.657 170.573 385.448 384.23 385.448h973.119c-58.728 213.91-167.961 409.402-321.694 573.046l-112.839 122.161h2171.468l-112.839-122.161c-153.726-163.645-262.961-359.136-321.687-573.046h975.071c213.657 0 384.892-171.791 384.892-385.448v-2181.53zm-1615.621 53.539-508.967 748.48 127.853-552.396h-449.902l495.354-688.474-142.598 492.39h478.26zm-2261.494-53.539c0-135.025 106.598-240.588 241.623-240.588h1367.5l-457 632.816h548.901l-259.179 1120.071 1089.124-1601.368H2115.57l44.624-151.519H3634.83c135.025 0 242.285 105.562 242.285 240.588v1631.123H142.607V1238.833zm2633.155 3119.58H1241.34c125.281-164.419 214.565-347.604 263.903-552.6h1006.623c49.338 204.996 138.619 388.181 263.896 552.6zm859.068-695.207H384.23c-135.025 0-241.623-107.817-241.623-242.842v-407.801h3734.509v407.801c-.001 135.025-107.26 242.842-242.286 242.842z"></path>
  <path fill="#282d35" d="M2009.53 3085.216c-112.499 0-204.022 91.523-204.022 204.022s91.523 204.022 204.022 204.022 204.022-91.523 204.022-204.022c0-112.5-91.522-204.022-204.022-204.022zm0 265.437c-33.867 0-61.416-27.548-61.416-61.416 0-33.867 27.548-61.416 61.416-61.416s61.416 27.548 61.416 61.416c0 33.868-27.549 61.416-61.416 61.416zM1951.927 0h151.519v365.429h-151.519zM1152.97 268.8l303.51 207.989-84.706 123.607-303.509-207.988zM2901.539 261.086l89.754 119.99-294.63 220.387-89.754-119.99z"></path>
</svg>
