<svg xmlns="http://www.w3.org/2000/svg" width="32" height="32" id="computer">
  <path fill="#f8b84e" d="M24.876 11H30v10h-6V11h.876z"></path>
  <path fill="#2b4255" d="M-3.504 1029.36a.5.5 0 0 0-.5.5v15a.5.5 0 0 0 .5.5h9a.5.5 0 0 0 .5-.5v-15a.5.5 0 0 0-.5-.5h-9zm.5 1h8v14h-8v-14z" color="#000" font-family="sans-serif" font-weight="400" opacity=".98" overflow="visible" style="line-height:normal;text-indent:0;text-align:start;text-decoration-line:none;text-decoration-style:solid;text-decoration-color:#000;text-transform:none;block-progression:tb;isolation:auto;mix-blend-mode:normal" transform="translate(26.003 -1021.359)"></path>
  <path fill="#2b4255" fill-opacity=".98" d="M27.5 22a.5.5 0 0 1-.5.5.5.5 0 0 1-.5-.5.5.5 0 0 1 .5-.5.5.5 0 0 1 .5.5z" opacity=".98"></path>
  <path fill="#2b4255" fill-opacity=".98" fill-rule="evenodd" d="M-.504 1030.86v1h3v-1h-3z" color="#000" font-family="sans-serif" font-weight="400" overflow="visible" style="line-height:normal;text-indent:0;text-align:start;text-decoration-line:none;text-decoration-style:solid;text-decoration-color:#000;text-transform:none;block-progression:tb;isolation:auto;mix-blend-mode:normal" transform="translate(26.003 -1021.359)"></path>
  <path fill="#2b4255" d="M-24.504 1031.36a.5.5 0 0 0-.5.5v8a.5.5 0 0 0 .5.5h3.75a.5.5 0 1 0 0-1h-3.25v-7h12v7h-3.437a.5.5 0 1 0 0 1h3.937a.5.5 0 0 0 .5-.5v-8a.5.5 0 0 0-.5-.5h-13z" color="#000" font-family="sans-serif" font-weight="400" overflow="visible" style="line-height:normal;text-indent:0;text-align:start;text-decoration-line:none;text-decoration-style:solid;text-decoration-color:#000;text-transform:none;block-progression:tb;isolation:auto;mix-blend-mode:normal" transform="translate(26.003 -1021.359)"></path>
  <path fill="#2b4255" d="M-25.209 1039.36c-.143.01-.34.012-.531.185-.19.173-.22.384-.235.523-.014.14-.015.272-.027.457a.5.5 0 0 0-.002.033v1.301a.5.5 0 0 0 .5.5h15a.5.5 0 0 0 .5-.5v-2a.5.5 0 0 0-.5-.5h-5a.5.5 0 1 0 0 1h4.5v1h-14v-.767c.008-.115.01-.16.014-.235H-20.504a.5.5 0 1 0 0-1h-4.219c-.2 0-.343-.01-.486 0z" color="#000" font-family="sans-serif" font-weight="400" overflow="visible" style="line-height:normal;text-indent:0;text-align:start;text-decoration-line:none;text-decoration-style:solid;text-decoration-color:#000;text-transform:none;block-progression:tb;isolation:auto;mix-blend-mode:normal" transform="translate(26.003 -1021.359)"></path>
  <path fill="#2b4255" d="M-20.512 1039.352a.5.5 0 0 0-.492.507v.5a.5.5 0 0 0 .5.5h5a.5.5 0 0 0 .5-.5v-.5a.5.5 0 1 0-1 0h-4a.5.5 0 0 0-.508-.507z" color="#000" font-family="sans-serif" font-weight="400" overflow="visible" style="line-height:normal;text-indent:0;text-align:start;text-decoration-line:none;text-decoration-style:solid;text-decoration-color:#000;text-transform:none;block-progression:tb;isolation:auto;mix-blend-mode:normal" transform="translate(26.003 -1021.359)"></path>
  <path fill="#f8b84e" d="M3.876 12H13v5H3v-5h.876z"></path>
  <path fill="#2b4255" d="M-9.547 1032.877a.5.5 0 1 0 .05 1h3.157a.5.5 0 1 0 0-1h-3.156a.5.5 0 0 0-.05 0z" color="#000" font-family="sans-serif" font-weight="400" overflow="visible" style="line-height:normal;text-indent:0;text-align:start;text-decoration-line:none;text-decoration-style:solid;text-decoration-color:#000;text-transform:none;block-progression:tb;isolation:auto;mix-blend-mode:normal" transform="translate(26.003 -1021.359)"></path>
  <path fill="#2b4255" d="M-7.018 1031.36a.5.5 0 0 0-.35.857l1.507 1.512a.5.5 0 1 0 .707-.707l-1.506-1.51a.5.5 0 0 0-.358-.153z" color="#000" font-family="sans-serif" font-weight="400" overflow="visible" style="line-height:normal;text-indent:0;text-align:start;text-decoration-line:none;text-decoration-style:solid;text-decoration-color:#000;text-transform:none;block-progression:tb;isolation:auto;mix-blend-mode:normal" transform="translate(26.003 -1021.359)"></path>
  <path fill="#2b4255" d="M-5.52 1032.87a.5.5 0 0 0-.341.151l-1.477 1.481a.5.5 0 1 0 .71.707l1.474-1.48a.5.5 0 0 0-.366-.86zm-3.146 5.005a.5.5 0 1 0 0 1h3.156a.5.5 0 1 0 0-1h-3.156z" color="#000" font-family="sans-serif" font-weight="400" overflow="visible" style="line-height:normal;text-indent:0;text-align:start;text-decoration-line:none;text-decoration-style:solid;text-decoration-color:#000;text-transform:none;block-progression:tb;isolation:auto;mix-blend-mode:normal" transform="translate(26.003 -1021.359)"></path>
  <path fill="#2b4255" d="M-8.004 1036.357a.5.5 0 0 0-.342.153l-1.506 1.512a.5.5 0 1 0 .707.705l1.506-1.51a.5.5 0 0 0-.365-.86z" color="#000" font-family="sans-serif" font-weight="400" overflow="visible" style="line-height:normal;text-indent:0;text-align:start;text-decoration-line:none;text-decoration-style:solid;text-decoration-color:#000;text-transform:none;block-progression:tb;isolation:auto;mix-blend-mode:normal" transform="translate(26.003 -1021.359)"></path>
  <path fill="#2b4255" d="M-9.502 1037.87a.5.5 0 0 0-.35.857l1.475 1.48a.5.5 0 1 0 .709-.705l-1.477-1.48a.5.5 0 0 0-.357-.153z" color="#000" font-family="sans-serif" font-weight="400" overflow="visible" style="line-height:normal;text-indent:0;text-align:start;text-decoration-line:none;text-decoration-style:solid;text-decoration-color:#000;text-transform:none;block-progression:tb;isolation:auto;mix-blend-mode:normal" transform="translate(26.003 -1021.359)"></path>
</svg>
