<svg xmlns="http://www.w3.org/2000/svg" viewBox="0 0 293.35 293.35" id="twitter">
  <rect width="293.35" height="293.35" fill="#3c3c3b"></rect>
  <path fill="#fff" d="m232.33,93.58c-4.02,4.06-9.59,6.57-15.77,6.57-.79,0-1.57-.04-2.33-.12,6.44-3.86,11.41-9.92,13.89-17.13,0,0,.01,0,.01-.01.34-.97.63-1.94.87-2.95-5.1,5.45-12.07,9.14-19.89,10.02-1.2.14-2.42.21-3.65.21-.39,0-.77-.01-1.14-.03-2.64-2.78-5.8-5.07-9.29-6.76-3.9-1.9-8.25-3.02-12.85-3.16-.38-.02-.76-.03-1.14-.03-3.9,0-7.64.69-11.09,1.97-.89.32-1.74.68-2.59,1.09-10.95,5.13-18.52,16.26-18.52,29.15,0,2.64.32,5.22.92,7.67-3.35-.13-6.67-.46-9.93-.94-1.04-.17-2.09-.34-3.12-.54-8.31-1.54-16.22-4.2-23.59-7.81-6.59-3.22-12.73-7.2-18.31-11.81-4.7-3.88-8.99-8.19-12.84-12.91-.17-.2-.33-.41-.49-.61-.22.34-.43.69-.62,1.04-2.69,4.7-4.21,10.13-4.21,15.92,0,.18,0,.37.01.54.07,4.34.99,8.47,2.63,12.23.7,1.67,1.55,3.24,2.53,4.74,2.88,4.43,6.81,8.12,11.45,10.67.21.13.42.24.64.34-.33.07-.68.12-1.02.16-.95.12-1.93.19-2.92.19-4.94,0-9.54-1.54-13.3-4.18-.02.28-.02.56-.02.84,0,9.19,3.85,17.49,10.03,23.34,4.81,4.59,11.03,7.67,17.93,8.57-2.49.91-5.17,1.4-7.97,1.4-3.03,0-5.93-.58-8.58-1.63,3.95,12.86,15.75,22.29,29.8,22.71-8.58,8.92-20.64,14.46-33.99,14.46-8.29,0-16.09-2.14-22.85-5.9,16.25,14.06,37.43,22.55,60.61,22.55,51.21,0,92.72-41.51,92.72-92.72,0-2.82-.12-5.61-.38-8.36,8.47-3.34,15.19-10.18,18.37-18.75Z"></path>
</svg>
